<svg width="196" height="294" viewBox="0 0 196 294" fill="none" xmlns="http://www.w3.org/2000/svg">
<path fill-rule="evenodd" clip-rule="evenodd" d="M188 189.527C176.288 211.806 152.918 227 126 227H93V263.412C78.3771 257.786 68 243.605 68 227C68 205.461 85.4609 188 107 188H188V189.527Z" fill="#FBDA4F"/>
<path fill-rule="evenodd" clip-rule="evenodd" d="M156 89C156 105.751 149.76 121.044 139.477 132.682C142.926 136.838 145 142.177 145 148C145 157.839 139.08 166.295 130.607 170H194.795C195.586 165.788 196 161.442 196 157V139C196 110.499 178.967 85.9761 154.524 75.0563C155.491 79.5512 156 84.2162 156 89ZM90 155C91.0054 155 92.0056 154.978 93 154.933V171.732C78.4688 175.402 66.1584 184.651 58.4818 197.069C55.5178 195.899 53 194.5 53 194.5L51.8148 192.13C49.3995 187.299 44.6904 184.878 40 184.937V155H90ZM40 210.587V227V267.5C40 282.136 51.8645 294 66.5 294C76.1351 294 84.5692 288.858 89.2077 281.168C66.4405 273.694 50 252.267 50 227C50 221.971 50.6513 217.094 51.8742 212.449C48.186 212.069 44.04 211.379 40 210.587Z" fill="#0FB4E2"/>
<path fill-rule="evenodd" clip-rule="evenodd" d="M148 120.527C136.288 142.806 112.918 158 86 158H53V194.412C38.3771 188.786 28 174.605 28 158C28 136.461 45.4609 119 67 119H148V120.527Z" fill="#F16767"/>
<path fill-rule="evenodd" clip-rule="evenodd" d="M112.999 5.39641C112.852 26.8572 100.846 45.5008 83.2069 55.1001C95.4273 56.2142 105 66.4892 105 79C105 88.8389 99.0795 97.295 90.6068 101H154.795C155.586 96.7876 156 92.4421 156 88V70C156 40.9095 138.255 15.9637 112.999 5.39641ZM53 62H0V158V198.5C0 213.136 11.8645 225 26.5 225C36.1351 225 44.5692 219.858 49.2077 212.168C26.4405 204.694 10 183.267 10 158C10 131.35 28.2888 108.972 53 102.732V62Z" fill="#F16767"/>
<path fill-rule="evenodd" clip-rule="evenodd" d="M56 44C77.5391 44 95 26.5391 95 5C95 3.49226 94.9144 2.0045 94.7479 0.541311C91.8821 0.18404 88.9626 0 86 0H20C8.95431 0 0 8.9543 0 20V44H56Z" fill="#FBDA4F"/>
</svg>
